<?xml version="1.0" standalone="no"?>
<!DOCTYPE svg PUBLIC "-//W3C//DTD SVG 20010904//EN"
 "http://www.w3.org/TR/2001/REC-SVG-20010904/DTD/svg10.dtd">
<svg version="1.0" xmlns="http://www.w3.org/2000/svg"
 width="192.000000pt" height="192.000000pt" viewBox="0 0 192.000000 192.000000"
 preserveAspectRatio="xMidYMid meet">
<metadata>
Created by potrace 1.14, written by Peter Selinger 2001-2017
</metadata>
<g transform="translate(0.000000,192.000000) scale(0.100000,-0.100000)"
fill="#000000" stroke="none">
<path d="M190 960 l0 -290 75 0 75 0 0 100 0 100 73 0 c44 0 79 5 88 13 8 6
35 74 59 150 l45 139 -32 28 c-46 41 -90 50 -245 50 l-138 0 0 -290z m254 169
c33 -15 48 -59 34 -100 -12 -35 -41 -49 -99 -49 l-39 0 0 80 0 80 40 0 c21 0
50 -5 64 -11z"/>
<path d="M814 1065 c-32 -102 -61 -185 -64 -185 -4 0 -24 36 -45 81 l-40 80
-38 -116 -39 -116 39 -67 38 -67 75 -3 75 -3 55 166 c30 90 57 161 61 157 4
-4 29 -78 55 -165 l48 -158 75 3 74 3 114 279 c62 154 113 283 113 288 0 4
-33 8 -72 8 l-73 0 -73 -173 c-41 -95 -77 -179 -82 -187 -5 -9 -19 22 -40 91
-17 57 -43 141 -57 187 l-25 82 -57 0 -57 0 -60 -185z"/>
<path d="M1471 1149 l-34 -91 23 -72 c12 -39 25 -77 27 -83 4 -10 -11 -13 -56
-13 l-62 0 -19 -46 c-11 -25 -20 -50 -20 -55 0 -5 44 -9 99 -9 l98 0 20 -52
20 -53 77 -3 c42 -2 76 1 76 5 1 14 -205 562 -210 563 -3 0 -21 -41 -39 -91z"/>
</g>
</svg>
